{"title":"The Secret Life Of Walter Mitty 2013 720p BRRip x264 MP4 AAC-CC","uid":9843965,"size":2787577603,"categoryP":"video","categoryS":"hd___movies","magnet":"?xt=urn:btih:b3d69f4412ba120aa4f0f389c879b68652a07708&amp;dn=The+Secret+Life+Of+Walter+Mitty+2013+720p+BRRip+x264+MP4+AAC-CC&amp;tr=udp%3A%2F%2Ftracker.openbittorrent.com%3A80&amp;tr=udp%3A%2F%2Fopen.demonii.com%3A1337&amp;tr=udp%3A%2F%2Ftracker.coppersurfer.tk%3A6969&amp;tr=udp%3A%2F%2Fexodus.desync.com%3A6969","seeders":1,"leechers":0,"uploader":"Caveman44","files":-1,"time":1396041075,"description":" &lt;a href=&quot;http://www.imdb.com/title/tt0359950&quot; rel=&quot;nofollow&quot; target=&quot;_NEW&quot;&gt;http://www.imdb.com/title/tt0359950&lt;/a&gt;\n\nSource: The.Secret.Life.of.Walter.Mitty.2013.720p.BluRay.x264-SPARKS\n\n Thanks!\n\nSubs ( Subrip ) : Arabic, Bosnian, Brazilian, Croatian, Danish, Dutch, English, Farsi Persian, French, Greek, Hebrew, Malay, Portuguese.\n\nSubs ( Vobsub ) : Arabic, Bulgarian, Chinese, Croatian, Czech, English, Estonian, French, Greek, Hebrew, Hungarian, Icelandic, Latvian, Lithuanian,  Polish, Portuguese, Romanian, Russian, Serbian, Slovenian, Turkish, Ukrainian\n\nSample and Screens included.\n\nGeneral\nComplete name                            : The Secret Life Of Walter Mitty 2013 720p BRRip x264 MP4 AAC-CC.mp4\nFormat                                   : MPEG-4\nFormat profile                           : Base Media\nCodec ID                                 : isom\nFile size                                : 2.41 GiB\nDuration                                 : 1h 54mn\nOverall bit rate mode                    : Variable\nOverall bit rate                         : 3 005 Kbps\nEncoded date                             : UTC 2014-03-27 05:37:55\nTagged date                              : UTC 2014-03-27 05:37:55\nWriting application                      : Yamb 2.1.0.0 \n\nVideo\nID                                       : 1\nFormat                                   : AVC\nFormat/Info                              : Advanced Video Codec\nFormat profile                           : &lt;a class=&quot;__cf_email__&quot; href=&quot;/cdn-cgi/l/email-protection&quot; data-cfemail=&quot;2860414f4068641c0619&quot;&gt;[email&amp;#160;protected]&lt;/a&gt;&lt;script cf-hash='f9e31' type=&quot;text/javascript&quot;&gt;\n/* &lt;![CDATA[ */!function(){try{var t=&quot;currentScript&quot;in document?document.currentScript:function(){for(var t=document.getElementsByTagName(&quot;script&quot;),e=t.length;e--;)if(t[e].getAttribute(&quot;cf-hash&quot;))return t[e]}();if(t&amp;&amp;t.previousSibling){var e,r,n,i,c=t.previousSibling,a=c.getAttribute(&quot;data-cfemail&quot;);if(a){for(e=&quot;&quot;,r=parseInt(a.substr(0,2),16),n=2;a.length-n;n+=2)i=parseInt(a.substr(n,2),16)^r,e+=String.fromCharCode(i);e=document.createTextNode(e),c.parentNode.replaceChild(e,c)}}}catch(u){}}();/* ]]&gt; */&lt;/script&gt;\nFormat settings, CABAC                   : Yes\nFormat settings, ReFrames                : 5 frames\nCodec ID                                 : avc1\nCodec ID/Info                            : Advanced Video Coding\nDuration                                 : 1h 54mn\nBit rate                                 : 2 711 Kbps\nMaximum bit rate                         : 30.4 Mbps\nWidth                                    : 1 280 pixels\nHeight                                   : 536 pixels\nDisplay aspect ratio                     : 2.40:1\nFrame rate mode                          : Variable\nFrame rate                               : 23.976 fps\nMinimum frame rate                       : 19.048 fps\nMaximum frame rate                       : 25.000 fps\nColor space                              : YUV\nChroma subsampling                       : 4:2:0\nBit depth                                : 8 bits\nScan type                                : Progressive\nBits/(Pixel*Frame)                       : 0.165\nStream size                              : 2.09 GiB (87%)\nWriting library                          : x264 core 112\nEncoding settings                        : cabac=1 / ref=5 / deblock=1:0:0 / analyse=0x3:0x113 / me=hex / subme=7 / psy=1 / psy_rd=1.00:0.00 / mixed_ref=1 / me_range=16 / chroma_me=1 / trellis=1 / 8x8dct=1 / cqm=0 / deadzone=21,11 / fast_pskip=1 / chroma_qp_offset=-2 / threads=3 / sliced_threads=0 / nr=0 / decimate=1 / interlaced=0 / constrained_intra=0 / bframes=5 / b_pyramid=2 / b_adapt=2 / b_bias=0 / direct=1 / weightb=1 / open_gop=0 / weightp=2 / keyint=240 / keyint_min=23 / scenecut=40 / intra_refresh=0 / rc_lookahead=50 / rc=abr / mbtree=1 / bitrate=2711 / ratetol=1.0 / qcomp=0.60 / qpmin=3 / qpmax=51 / qpstep=4 / ip_ratio=1.40 / aq=1:1.00\nEncoded date                             : UTC 2014-03-27 21:41:14\nTagged date                              : UTC 2014-03-27 05:41:40\nColor primaries                          : BT.709\nTransfer characteristics                 : BT.709\nMatrix coefficients                      : BT.709\n\nAudio\nID                                       : 2\nFormat                                   : AAC\nFormat/Info                              : Advanced Audio Codec\nFormat profile                           : LC\nCodec ID                                 : 40\nDuration                                 : 1h 54mn\nBit rate mode                            : Variable\nBit rate                                 : 384 Kbps\nMaximum bit rate                         : 701 Kbps\nChannel(s)                               : 6 channels\nChannel positions                        : Front: L C R, Side: L R, LFE\nSampling rate                            : 48.0 KHz\nCompression mode                         : Lossy\nDelay relative to video                  : 83ms\nStream size                              : 315 MiB (13%)\nLanguage                                 : English\nEncoded date                             : UTC 2014-03-27 05:40:48\nTagged date                              : UTC 2014-03-27 05:41:40\n\nEnjoy...","torrent":{"xt":"urn:btih:b3d69f4412ba120aa4f0f389c879b68652a07708","amp;dn":"The+Secret+Life+Of+Walter+Mitty+2013+720p+BRRip+x264+MP4+AAC-CC","amp;tr":["udp%3A%2F%2Ftracker.openbittorrent.com%3A80","udp%3A%2F%2Fopen.demonii.com%3A1337","udp%3A%2F%2Ftracker.coppersurfer.tk%3A6969","udp%3A%2F%2Fexodus.desync.com%3A6969"],"infoHash":"b3d69f4412ba120aa4f0f389c879b68652a07708","infoHashBuffer":{"type":"Buffer","data":[179,214,159,68,18,186,18,10,164,240,243,137,200,121,182,134,82,160,119,8]},"announce":[],"urlList":[]}}